<svg width="11" height="11" viewBox="0 0 11 11" fill="none" xmlns="http://www.w3.org/2000/svg">
<path d="M11 10.1448L7.80305 6.94788C8.46367 6.0708 8.7671 4.97583 8.65214 3.88382C8.53718 2.79182 8.01238 1.78404 7.1836 1.06375C6.35482 0.343464 5.28372 -0.035729 4.18635 0.00265349C3.08898 0.041036 2.047 0.494138 1.27057 1.27057C0.494138 2.047 0.041036 3.08898 0.00265349 4.18635C-0.035729 5.28372 0.343464 6.35482 1.06375 7.1836C1.78404 8.01238 2.79182 8.53718 3.88382 8.65214C4.97583 8.7671 6.0708 8.46367 6.94788 7.80305L10.1448 11L11 10.1448ZM4.37575 7.46669C3.76452 7.46669 3.16702 7.28545 2.6588 6.94588C2.15058 6.60631 1.75446 6.12366 1.52053 5.55897C1.2866 4.99428 1.22537 4.3729 1.34458 3.77342C1.46378 3.17393 1.75808 2.62325 2.19025 2.19101C2.62242 1.75877 3.17305 1.46439 3.77252 1.34509C4.37199 1.22578 4.99337 1.28692 5.5581 1.52075C6.12283 1.75459 6.60554 2.15064 6.94519 2.65881C7.28484 3.16697 7.46618 3.76445 7.46627 4.37567C7.46533 5.19509 7.13943 5.98068 6.56006 6.56014C5.98069 7.1396 5.19517 7.46562 4.37575 7.46669Z" fill="#EEEBF4"/>
</svg>
